<?xml version="1.0"?><svg version="1.2" baseProfile="tiny-ps" viewBox="0 0 300 300" xmlns="http://www.w3.org/2000/svg" xmlns:xlink="http://www.w3.org/1999/xlink"><title>PILATISM™</title><g><g fill="#fff" transform="matrix(.1 0 0 -.1 0 300)"><path d="M0 1500V0h3000v3000H0V1500z"/></g><g fill="#f5d8d8" transform="matrix(.1 0 0 -.1 0 300)"><path d="M0 1500V0h3000v3000H0V1500zm2255 301c49-22 73-48 91-98l13-38 1-47v-48h-98l-6 23c-3 12-6 39-6 59v37l-22 15-22 16h-55l-21-27-22-28 6-33c7-46 17-56 101-102 39-22 84-52 99-66l26-27 11-37 12-38-7-35c-13-70-74-133-138-143l-37-6-36 6-35 7-36 31-35 31-14 35-15 34v78h100v-67l21-27 20-26h57l21 18 22 17 1 32 1 32-13 16c-7 8-45 33-84 54-82 46-109 71-131 123l-15 37v72l20 39 20 39 32 24c36 27 57 34 103 36l30 1 40-19zm-1820-14 40-22 23-45 23-45-4-65-4-66-26-41-26-41-44-21-43-21H270v-230H170v620h225l40-23zm252-287 3-310H580v620h105l2-310zm193 50v-260h190v-100H767l7 61c3 34 6 174 6 310v249h100v-260zm474 233c3-16 22-122 41-238 20-115 42-243 49-283l13-73-51 3-51 3-5 30-5 30h-130l-3-32-3-33h-102l7 43c11 71 97 551 101 565l4 12h129l6-27zm436-23v-50h-120v-520h-100l-2 258-3 257-62 3-63 3v43c0 23 3 46 7 49 3 4 82 7 175 7h168v-50zm150-102c0-84 3-224 7-310l6-158h-113v620h100v-152zm645 92c22-33 43-60 46-60 4 0 24 27 45 60l39 60h115v-620h-100v461l-9-5c-5-3-25-31-46-61-20-30-40-55-44-55-5 0-26 27-47 60-22 33-42 60-46 60h-8v-460h-100v620h115l40-60zM270 1615v-95h89l26 23 27 23 5 46 5 46-25 26-26 26H270v-95zm1000-12c0-26-23-176-35-230l-5-23h102l-6 28c-3 15-13 78-22 140l-17 112h-17v-27z"/></g><g fill="#ea9898" transform="matrix(.1 0 0 -.1 0 300)"><path d="M0 1500V0h3000v3000H0V1500zm2258 306c36-19 78-65 91-99 6-16 11-53 11-83v-54h-109l-3 56-3 57-26 20-27 19-28-9-28-9-12-30-11-29 9-32 8-32 87-48 86-48 26-34 26-34v-123l-27-41-26-40-39-18-38-19-48 1-48 1-39 26-40 26-20 40-20 39v91h97l6-38c8-47 25-69 57-77l26-6 27 21 27 21v27c0 39-6 44-102 101l-86 51-23 37-23 37-4 57-4 57 23 42 24 42 40 24 40 24h96l27-14zm-1818-18c18-13 42-35 54-51l20-27 4-66 4-65-16-44-17-44-34-30-35-30-32-5c-18-3-51-7-73-8l-40-3-3-118-3-118-52 3-52 3 1 18c0 9 1 150 2 312l2 295h237l33-22zm250-293v-315H580v630h110v-315zm190 55v-260h190v-110H770v630h110v-260zm491 155c10-55 33-194 53-308 20-115 36-211 36-213 0-3-24-4-52-2l-53 3-5 30-5 30-62 3-62 3-9-33-8-33-53-3-53-3 5 23c3 13 17 91 32 173 14 83 37 210 51 283 13 73 24 138 24 143v10l72-3 72-3 17-100zm419 55v-50h-120v-531l-52 3-53 3-3 263-2 262h-120v100h350v-50zm160-265v-315h-110v630h110v-315zm635 260c21-30 42-55 47-55 4 0 24 25 44 55l37 55h115l7-202c3-112 5-252 3-313l-3-110-52-3-53-3v461h-7c-5 0-25-27-47-60-21-33-41-60-45-60-3 0-23 27-45 60-21 33-42 60-47 60h-9v-460h-100v630h118l37-55zm-2308-52c-4-3-7-44-7-90v-83h108l11 14c7 8 16 29 21 47l10 34-11 32-11 33-18 10c-21 11-93 14-103 3zm1000-103c-9-36-37-214-37-234v-16h80l-1 33c0 17-8 79-18 137l-18 105-6-25z"/></g><g fill="#df5f5f" transform="matrix(.1 0 0 -.1 0 300)"><path d="M0 1500V0h3000v3000H0V1500zm2225 319c50-14 84-40 112-87l23-37v-125h-110v98l-18 22-18 23h-55l-19-18-20-18v-74l23-20c12-11 52-36 89-56l66-37 26-31c32-38 40-67 34-129l-5-49-28-37-28-36-41-19c-50-23-85-24-134-4-72 31-106 79-118 163l-7 52h123v-77l20-18 19-17h55l18 22 18 22v48l-39 27c-22 16-62 40-89 55l-50 27-28 37-29 37-3 68-4 68 22 35c32 53 76 81 150 95 3 0 23-4 45-10zm-1792-23 38-19 23-41c13-22 27-56 31-73l7-33-12-57-12-58-42-41-41-42-40-11c-22-6-54-11-72-11h-32l-3-112-3-113-57-3-58-3v628l8 7 7 8 110-4 110-4 38-18zm257-296v-320H580v640h110v-320zm192 58 3-263 93-3 92-3v-109H770v640h110l2-262zm525-43c29-165 52-308 53-317v-18h-108l-6 35-7 35h-118l-7-35-6-35h-108v9c0 22 110 613 115 622l7 10 66-3 67-3 52-300zm388 245v-55l-62-3-63-3v-519h-110v520h-120v120l178-2 177-3v-55zm155-260v-320h-110v640h110v-320zm633 260c23-33 45-58 49-57s24 27 45 57l39 55h119l3-317 2-318h-110l-2 233-3 232-44-62c-24-35-47-63-51-63s-26 28-49 63l-41 62v-465h-109l-6 10-6 10 7 310 7 310h107l43-60zM280 1620v-90h87l21 23 22 23v93l-26 20-27 21h-77v-90zm997-40c-6-22-37-212-37-225 0-3 18-5 41-5h41l-7 53c-4 28-13 86-20 127l-12 75-6-25z"/></g><g fill="#d72b2b" transform="matrix(.1 0 0 -.1 0 300)"><path d="M0 1500V0h3000v3000H0V1500zm2248 315c43-19 79-50 98-87l14-27v-141h-108l-4 61-4 62-19 13-19 14h-55l-15-22c-18-26-20-61-6-88l10-19 83-47 82-46 24-29 23-30 9-36 8-37-6-30c-17-90-92-156-178-156-49 0-85 16-126 57l-37 35-12 42c-6 24-10 56-8 72l3 29h110l6-42c3-23 11-48 18-57l13-16h58l20 20c22 22 25 42 10 70l-10 19-74 41-74 40-31 35-30 34-10 38c-15 52-14 77 4 121 21 49 52 81 100 103 49 23 84 24 133 4zm-1822-14 41-18 21-28c12-15 27-46 33-69l11-41-6-49-5-48-26-43-25-43-35-22-36-22-59-5-60-6v-227H160v640h225l41-19zm264-301v-321l-57 3-58 3 1 38c0 20 1 163 2 317l2 280h110v-320zm191 58-4-257 99-3 99-3v-110l-152-3-153-3v642l58-3 57-3-4-257zm473 254c6-10 106-587 106-613v-19h-109l-7 35-6 35h-118v-19c0-11-3-26-6-35l-6-16h-108v13c0 13 93 539 106 600l6 27h137l5-8zm446-52v-60h-120v-520h-120v520h-120v120h360v-60zm150-260v-321l-57 3-58 3-3 235c-2 129 0 272 3 318l7 82h108v-320zm639 259 43-61 40 61 41 61h127v-640h-120v454l-42-62c-24-34-45-61-48-62-3 0-23 28-45 62l-40 62-3-227-2-227h-120v627l7 6c3 4 32 7 63 7h56l43-61zM280 1615v-85h89l20 26 21 27v73l-16 22-15 22h-99v-85zm996-55c-19-100-34-196-29-202 6-11 61-10 67 0 3 5-3 60-13 123l-18 114-7-35z"/></g><g fill="#d50404" transform="matrix(.1 0 0 -.1 0 300)"><path d="M0 1500V0h3000v3000H0V1500zm2258 316c37-19 86-74 101-112l12-31-3-54-3-54-57-3-58-3v98l-21 27-20 26h-48l-15-15c-8-8-17-23-21-34l-6-18 10-26 10-26 38-24c21-13 59-36 85-51l47-26 27-35 26-35 5-44 5-44-11-35c-17-50-46-84-92-107l-38-20h-53l-53 1-40 27-40 27-22 45-23 44v96h120v-30c0-16 5-41 12-55l11-25 25-7 25-6 16 10c9 5 23 22 31 36l14 26-19 21c-11 12-51 40-90 63-38 22-82 53-97 68l-27 27-10 39c-14 50-13 89 3 136 17 47 40 73 86 98l35 18 48 1h48l27-14zm-1841-7c38-14 82-57 99-98l14-33v-109l-16-37c-19-47-60-90-103-108l-33-14h-97l-3-117-3-118H165l-3 323-2 322h229l28-11zm278-314v-320H575l-3 310c-1 170 0 316 3 323l5 13 57-3 58-3v-320zm195 65v-259l93-3 92-3v-120H765l-3 323-2 322h130v-260zm470 257c0-3 37-217 66-387 35-197 42-245 37-252-2-5-26-8-52-8h-47l-12 12c-7 7-12 22-12 35v23h-120v-58l-16-6c-23-9-102-7-108 2-2 4 4 55 15 112 24 131 43 231 70 385 11 66 23 126 25 133l3 12h76c41 0 75-1 75-3zm440-57v-60h-120l-2-262-3-263-54-3-54-3-8 13-9 13v505h-120v120h370v-60zm155-265v-320h-120l-3 323-2 323 62-3 63-3v-320zm635 268c19-29 38-52 41-53 3 0 23 25 43 55l36 55h127l6-312 6-312-11-13-11-14-51 3-51 3-5 224-5 224-38-56c-20-32-41-57-46-57-4 0-26 26-47 58l-39 57-5-225-5-225h-110l-3 323-2 323 67-3 68-3 35-52zM280 1615v-85h38c42 0 51 5 75 40l17 24v63l-23 21-23 22h-84v-85zm991-97c-7-35-13-83-14-108l-2-45 23-3 22-3 6 14c3 8 0 45-6 83s-10 81-10 97c1 45-7 31-19-35z"/></g></g></svg>
